<?xml version="1.0"?>
<svg xmlns="http://www.w3.org/2000/svg" xmlns:xlink="http://www.w3.org/1999/xlink" xmlns:svgjs="http://svgjs.com/svgjs" version="1.1" width="512" height="512" x="0" y="0" viewBox="0 0 212.926 212.926" style="enable-background:new 0 0 512 512" xml:space="preserve" class=""><g>
<g xmlns="http://www.w3.org/2000/svg">
	<g>
		<path d="M155.734,0c-9.774,0-18.719,4.467-24.636,12.133C125.182,4.467,116.238,0,106.463,0c-9.772,0-18.717,4.467-24.636,12.133    C75.909,4.467,66.964,0,57.192,0C39.9,0,25.832,14.068,25.832,31.359c0,16.387,12.633,29.873,28.672,31.237v85.673    c0,1.486,1.205,2.688,2.688,2.688h98.542c1.48,0,2.688-1.202,2.688-2.688V62.591c16.041-1.365,28.672-14.851,28.672-31.237    C187.094,14.068,173.025,0,155.734,0z" fill="#cbaf6d" data-original="#000000" style=""/>
		<path d="M171.188,199.115c-10.792,0-20.398-15.838-23.873-22.305c-0.73-1.974-1.556-3.644-2.531-5.093    c-4.348-6.398-11.56-10.219-19.28-10.219c-7.702,0-14.74,3.752-19.035,9.884c-4.294-6.132-11.331-9.884-19.034-9.884    c-7.73,0-14.938,3.82-19.286,10.229c-0.99,1.459-1.812,3.129-2.371,4.746c-3.629,6.812-13.241,22.646-24.034,22.646    c-1.231,0-2.299,0.836-2.601,2.026c-0.307,1.197,0.236,2.436,1.318,3.03c0.653,0.351,16.27,8.749,33.816,8.749    c11.901,0,21.791-3.852,29.392-11.453c0.066-0.064,0.118-0.127,0.174-0.189c0.965-0.966,1.848-2.01,2.627-3.134    c0.784,1.124,1.661,2.168,2.63,3.129c0.052,0.067,0.113,0.13,0.175,0.194c7.604,7.602,17.483,11.453,29.394,11.453    c0,0,0,0,0.005,0c17.539,0,33.15-8.398,33.812-8.749c1.075-0.59,1.622-1.844,1.316-3.03    C173.487,199.949,172.417,199.115,171.188,199.115z" fill="#cbaf6d" data-original="#000000" style=""/>
	</g>
</g>
<g xmlns="http://www.w3.org/2000/svg">
</g>
<g xmlns="http://www.w3.org/2000/svg">
</g>
<g xmlns="http://www.w3.org/2000/svg">
</g>
<g xmlns="http://www.w3.org/2000/svg">
</g>
<g xmlns="http://www.w3.org/2000/svg">
</g>
<g xmlns="http://www.w3.org/2000/svg">
</g>
<g xmlns="http://www.w3.org/2000/svg">
</g>
<g xmlns="http://www.w3.org/2000/svg">
</g>
<g xmlns="http://www.w3.org/2000/svg">
</g>
<g xmlns="http://www.w3.org/2000/svg">
</g>
<g xmlns="http://www.w3.org/2000/svg">
</g>
<g xmlns="http://www.w3.org/2000/svg">
</g>
<g xmlns="http://www.w3.org/2000/svg">
</g>
<g xmlns="http://www.w3.org/2000/svg">
</g>
<g xmlns="http://www.w3.org/2000/svg">
</g>
</g></svg>
