<?xml version="1.0"?>
<svg xmlns="http://www.w3.org/2000/svg" xmlns:xlink="http://www.w3.org/1999/xlink" xmlns:svgjs="http://svgjs.com/svgjs" version="1.1" width="512" height="512" x="0" y="0" viewBox="0 0 64 64" style="enable-background:new 0 0 512 512" xml:space="preserve" class=""><g><path xmlns="http://www.w3.org/2000/svg" d="M42,41H37V39.647A10.007,10.007,0,0,0,41.949,32H42a4,4,0,0,0,0-8V22.816a2.982,2.982,0,0,0,0-5.632V15.775a5.2,5.2,0,0,1,1.337-3.635A5.995,5.995,0,0,0,40.27,2.135a5.907,5.907,0,0,0-4.087.583,5.951,5.951,0,0,0-8.366,0,5.891,5.891,0,0,0-4.087-.583A5.995,5.995,0,0,0,20.663,12.14,5.2,5.2,0,0,1,22,15.775v1.409a2.982,2.982,0,0,0,0,5.632V24a4,4,0,0,0,0,8h.051A10.007,10.007,0,0,0,27,39.647V41H22A13.015,13.015,0,0,0,9,54v8a1,1,0,0,0,1,1H54a1,1,0,0,0,1-1V54A13.015,13.015,0,0,0,42,41Zm2-13a2,2,0,0,1-2,2V26A2,2,0,0,1,44,28ZM21.049,7.36a4.035,4.035,0,0,1,3.1-3.269,3.955,3.955,0,0,1,3.253.731,1.011,1.011,0,0,0,.744.193,1,1,0,0,0,.661-.393,3.96,3.96,0,0,1,6.392,0,1,1,0,0,0,1.405.2,3.954,3.954,0,0,1,3.253-.731,4.035,4.035,0,0,1,3.1,3.269,3.992,3.992,0,0,1-1.059,3.4A7.183,7.183,0,0,0,40,15.775V17H24V15.775a7.179,7.179,0,0,0-1.893-5.018A3.994,3.994,0,0,1,21.049,7.36ZM23,19H41a1,1,0,0,1,0,2H23a1,1,0,0,1,0-2Zm-3,9a2,2,0,0,1,2-2v4A2,2,0,0,1,20,28Zm4,3V23H40v8a8,8,0,0,1-16,0Zm8,10a9.986,9.986,0,0,0,3-.461V42a3,3,0,0,1-6,0V40.539A9.986,9.986,0,0,0,32,41ZM11,54A11.013,11.013,0,0,1,22,43h5.1a4.994,4.994,0,0,0,4.514,3.961L33.8,48.6A3.017,3.017,0,0,1,35,51V61H11Zm42,7H37V51a5.025,5.025,0,0,0-2-4l-.748-.561A5,5,0,0,0,36.9,43H42A11.013,11.013,0,0,1,53,54Z" fill="#cbaf6d" data-original="#000000" style="" class=""/><circle xmlns="http://www.w3.org/2000/svg" cx="31" cy="51" r="2" fill="#cbaf6d" data-original="#000000" style="" class=""/><circle xmlns="http://www.w3.org/2000/svg" cx="31" cy="57" r="2" fill="#cbaf6d" data-original="#000000" style="" class=""/></g></svg>
