<?xml version="1.0"?>
<svg xmlns="http://www.w3.org/2000/svg" xmlns:xlink="http://www.w3.org/1999/xlink" xmlns:svgjs="http://svgjs.com/svgjs" version="1.1" width="512" height="512" x="0" y="0" viewBox="0 0 512 512" style="enable-background:new 0 0 512 512" xml:space="preserve" class=""><g>
<g xmlns="http://www.w3.org/2000/svg">
	<g>
		<path d="M420.094,425.22c-4.143,0-7.5,3.358-7.5,7.5v60.205c0,2.246-1.827,4.074-4.073,4.074h-40.039V350.016    c0-4.142-3.357-7.5-7.5-7.5s-7.5,3.358-7.5,7.5v146.983h-90.027V393.398c0-4.142-3.357-7.5-7.5-7.5s-7.5,3.358-7.5,7.5v103.601    h-29.877c-4.142,0-7.5,3.358-7.5,7.5c0,4.142,3.358,7.5,7.5,7.5h189.945c10.518,0,19.074-8.558,19.074-19.075V432.72    C427.595,428.578,424.237,425.22,420.094,425.22z" fill="#cbaf6d" data-original="#000000" style="" class=""/>
	</g>
</g>
<g xmlns="http://www.w3.org/2000/svg">
	<g>
		<path d="M388.212,276.775c-0.047-0.02-0.095-0.039-0.143-0.057l-89.119-34.514v-5.192h32.779c10.518,0,19.074-8.558,19.074-19.075    v-54.379c4.06-5.421,6.309-12.041,6.309-18.975c0-6.933-2.249-13.553-6.309-18.973V94.802C350.803,42.528,308.275,0,256,0    C203.727,0,161.2,42.528,161.2,94.802v123.133c0,10.519,8.557,19.075,19.075,19.075h32.677v5.195l-89.023,34.512    c-0.047,0.018-0.094,0.037-0.141,0.056c-1.608,0.661-39.382,16.698-39.382,60.813v155.337c0,10.518,8.558,19.075,19.075,19.075    h80.092c4.142,0,7.5-3.358,7.5-7.5c0-4.142-3.358-7.5-7.5-7.5h-25.05V350.016c0-4.142-3.358-7.5-7.5-7.5    c-4.142,0-7.5,3.358-7.5,7.5v146.983H103.48c-2.246,0-4.074-1.828-4.074-4.074V337.587c0-33.54,28.299-46.175,30.041-46.92    l53.483-20.734l23.496,47.091c0,0,0,0,0,0.001c1.516,3.039,4.137,5.342,7.301,6.475c-7.545,11.932-12.322,23.815-14.477,29.775    c-2.194,6.069,0.762,12.743,6.73,15.191l21.913,8.987c3.242,1.33,6.938,1.2,10.134-0.474c3.139-1.646,5.375-4.571,6.133-8.028    c2.86-13.032,7.525-24.041,11.839-32.276c4.315,8.237,8.981,19.246,11.839,32.273c0.758,3.457,2.992,6.383,6.132,8.029    c3.155,1.654,6.852,1.822,10.135,0.475l21.916-8.988c5.967-2.449,8.922-9.122,6.728-15.192    c-2.158-5.965-6.936-17.854-14.485-29.787c3.144-1.138,5.747-3.436,7.257-6.46l0.001-0.001l23.496-47.089l53.534,20.732    c1.339,0.576,30.039,13.373,30.039,46.92v60.131c0,4.142,3.357,7.5,7.5,7.5s7.5-3.358,7.5-7.5v-60.131    C427.595,293.473,389.821,277.436,388.212,276.775z M335.802,217.936c0,2.247-1.827,4.074-4.073,4.074h-31.616    c13.769-10.854,23.573-26.991,26.064-45.594c3.072-0.144,6.575-0.786,9.626-1.864V217.936z M342.112,144.581    c0,8.475-6.364,15.751-15.295,16.759v-33.513C335.578,128.799,342.112,135.961,342.112,144.581z M180.275,222.01    c-2.247,0-4.074-1.828-4.074-4.074V94.802c0-44.003,35.798-79.801,79.8-79.801c44.004,0,79.803,35.798,79.803,79.801v19.81    c-2.806-0.988-6.253-1.659-9.089-1.835c-0.628-5.08-4.191-9.485-9.321-11.044c-0.001,0-0.001,0-0.001,0    c-11.302-3.434-23.743-10.7-34.462-21.755c-5.071-5.228-13.306-5.357-18.565-0.5c-1.918,1.77-31.285,37.58-70.497,52.057    c-5.194,1.919-8.685,6.928-8.685,12.466v23.096c0,22.238,10.408,42.204,26.723,54.913H180.275z M200.184,167.097v-21.909    c4.304-1.636,8.5-3.499,12.569-5.531c28.481-14.227,50.746-36.764,60.707-47.92c13.793,13.746,27.952,20.367,36.684,23.407    c0.582,0.203,1.14,0.389,1.672,0.561v5.009v46.383c0,29.976-24.381,54.913-54.913,54.913    C221.84,222.01,200.184,194.568,200.184,167.097z M283.949,231.564v13.122l-27.974,34.529l-28.023-34.59v-13.263    c8.974,3.722,18.799,5.649,28.95,5.649C266.496,237.011,275.723,235.029,283.949,231.564z M196.981,264.495l21.095-8.169    l27.035,33.369l-0.263,0.187c-4.115,2.922-23.002,16.337-25.99,18.459L196.981,264.495z M230.327,362.238l-15.964-6.546    c2.961-7.673,8.91-21.11,17.884-32.501c2.844,3.07,6.257,5.56,10.048,7.328C237.997,338.85,233.444,349.622,230.327,362.238z     M255.951,318.552c-5.627,0-11.181-2.8-14.491-7.865l14.515-10.309c11.841,8.408,8.722,6.193,14.482,10.285    C267.19,315.68,261.67,318.552,255.951,318.552z M281.677,362.237c-3.122-12.634-7.685-23.42-11.989-31.759    c3.781-1.777,7.187-4.274,10.022-7.348c8.997,11.4,14.963,24.872,17.931,32.561L281.677,362.237z M293.093,308.341    c-5.44-3.864-20.939-14.872-26.284-18.668l27.028-33.362l21.133,8.185L293.093,308.341z" fill="#cbaf6d" data-original="#000000" style="" class=""/>
	</g>
</g>
<g xmlns="http://www.w3.org/2000/svg">
</g>
<g xmlns="http://www.w3.org/2000/svg">
</g>
<g xmlns="http://www.w3.org/2000/svg">
</g>
<g xmlns="http://www.w3.org/2000/svg">
</g>
<g xmlns="http://www.w3.org/2000/svg">
</g>
<g xmlns="http://www.w3.org/2000/svg">
</g>
<g xmlns="http://www.w3.org/2000/svg">
</g>
<g xmlns="http://www.w3.org/2000/svg">
</g>
<g xmlns="http://www.w3.org/2000/svg">
</g>
<g xmlns="http://www.w3.org/2000/svg">
</g>
<g xmlns="http://www.w3.org/2000/svg">
</g>
<g xmlns="http://www.w3.org/2000/svg">
</g>
<g xmlns="http://www.w3.org/2000/svg">
</g>
<g xmlns="http://www.w3.org/2000/svg">
</g>
<g xmlns="http://www.w3.org/2000/svg">
</g>
</g></svg>
