<?xml version="1.0"?>
<svg xmlns="http://www.w3.org/2000/svg" xmlns:xlink="http://www.w3.org/1999/xlink" xmlns:svgjs="http://svgjs.com/svgjs" version="1.1" width="512" height="512" x="0" y="0" viewBox="0 0 64 64" style="enable-background:new 0 0 512 512" xml:space="preserve" class=""><g><path xmlns="http://www.w3.org/2000/svg" d="m20 57h4v2h-4z" fill="#cbaf6d" data-original="#000000" style="" class=""/><path xmlns="http://www.w3.org/2000/svg" d="m60.958 57.171c-.349-6.346-4.642-11.657-10.478-13.487.328-.48.52-1.06.52-1.684 0-1.654-1.346-3-3-3h-4c-1.654 0-3 1.346-3 3 0 .575.171 1.107.452 1.564-.853-.596-1.769-1.094-2.74-1.471l-7.799-3.032c-1.162-.454-1.913-1.551-1.913-2.797v-.682c1.659-1.238 3.03-2.798 4.041-4.582h.959c2.757 0 5-2.243 5-5 0-1.2-.443-2.288-1.15-3.151.74-1.504 1.15-3.158 1.15-4.849v-1c0-3.209-1.291-6.254-3.551-8.499.41-.792.551-1.674.551-2.501 0-3.577-2.448-4.843-2.553-4.895l-.746-.373-.501.667c-1.691 2.255-4.383 3.601-7.2 3.601h-4c-6.617 0-12 5.383-12 12v1c0 1.689.41 3.344 1.151 4.848-.708.863-1.151 1.951-1.151 3.152 0 2.757 2.243 5 5 5h.959c1.011 1.784 2.382 3.344 4.041 4.582v.682c0 1.246-.751 2.344-1.912 2.797l-7.8 3.032c-5.035 1.958-8.288 6.714-8.288 12.116v8.791h31 28c1.654 0 3-1.346 3-3 0-1.317-.859-2.427-2.042-2.829zm-2.009-.171h-25.898c.514-6.701 6.119-12 12.949-12s12.435 5.299 12.949 12zm-14.949-16h4c.552 0 1 .448 1 1s-.448 1-1 1h-4c-.552 0-1-.448-1-1s.448-1 1-1zm-4.682 3.59c-4.688 2.346-7.972 7.067-8.276 12.581-1.183.402-2.042 1.512-2.042 2.829 0 .352.072.686.184 1h-1.184v-7.5l-.4-.3c-.781-.586-1.507-1.232-2.206-1.905 2.584-2.899 4.486-6.343 5.562-10.073l7.032 2.734c.459.179.9.396 1.33.634zm-18.36-7.772c.867.459 1.783.849 2.755 1.14l.287.086.287-.086c.971-.291 1.888-.681 2.755-1.14.007.061.005.124.014.185l-3.056 4.277-3.056-4.276c.009-.061.008-.125.014-.186zm3.042 7.484 2.526 2.105c-.734 1.217-1.576 2.368-2.519 3.44-.943-1.073-1.786-2.227-2.524-3.448zm5.124-3.961c-.404 1.479-.946 2.91-1.62 4.277l-2.151-1.792 2.596-3.634c.321.444.719.829 1.175 1.149zm4.876-11.341h-.014c.652-1.695 1.014-3.528 1.014-5.44v-.375c1.161.414 2 1.514 2 2.816 0 1.653-1.346 2.999-3 2.999zm-23-12c0-5.514 4.486-10 10-10h4c3.096 0 6.067-1.329 8.138-3.6.403.466.862 1.285.862 2.6 0 1.559-.484 3-4 3v2c1.889 0 3.207-.396 4.118-1.01 1.835 1.865 2.882 4.371 2.882 7.01v1c0 1.232-.258 2.445-.741 3.564-.396-.203-.811-.372-1.259-.463v-1.57l-6.799-5.665-15.201 5.429v1.806c-.447.091-.862.26-1.258.463-.483-1.12-.742-2.332-.742-3.564zm3 12c-1.654 0-3-1.346-3-3 0-1.302.839-2.402 2-2.816v.375c0 1.912.362 3.745 1.014 5.44h-.014zm1-5.44v-2.854l12.799-4.571 5.201 4.334v3.091c0 5.699-3.604 10.643-9 12.393-5.396-1.751-9-6.694-9-12.393zm5.051 15.632 2.596 3.634-2.142 1.784c-.673-1.365-1.218-2.794-1.623-4.273.454-.32.849-.703 1.169-1.145zm-2.996 2.027c1.514 5.242 4.639 9.911 8.945 13.275v6.506h-16v-17.038c.004-.002.008-.004.013-.005zm-14.055 12.99c0-3.802 1.908-7.22 5-9.218v16.009h-5zm57 6.791h-28c-.552 0-1-.448-1-1s.448-1 1-1h28c.552 0 1 .448 1 1s-.448 1-1 1z" fill="#cbaf6d" data-original="#000000" style="" class=""/><path xmlns="http://www.w3.org/2000/svg" d="m54.586 55.301 1.908-.602c-.22-.697-.513-1.377-.869-2.02l-1.748.971c.291.526.529 1.08.709 1.651z" fill="#cbaf6d" data-original="#000000" style="" class=""/><path xmlns="http://www.w3.org/2000/svg" d="m50.943 48.174c-.653-.33-1.343-.595-2.051-.789l-.527 1.93c.578.158 1.143.375 1.676.645z" fill="#cbaf6d" data-original="#000000" style="" class=""/><path xmlns="http://www.w3.org/2000/svg" d="m52.854 52.174 1.521-1.297c-.474-.557-1.006-1.068-1.581-1.521l-1.236 1.572c.47.371.907.79 1.296 1.246z" fill="#cbaf6d" data-original="#000000" style="" class=""/><path xmlns="http://www.w3.org/2000/svg" d="m45 37h2c0-4.437-1.484-6.658-2.794-8.618-1.184-1.772-2.206-3.302-2.206-6.382 0-1.103.897-2 2-2s2 .897 2 2-.897 2-2 2v2c2.206 0 4-1.794 4-4s-1.794-4-4-4-4 1.794-4 4c0 3.687 1.293 5.622 2.543 7.493 1.264 1.891 2.457 3.677 2.457 7.507z" fill="#cbaf6d" data-original="#000000" style="" class=""/><path xmlns="http://www.w3.org/2000/svg" d="m53 22v-2c-1.103 0-2-.897-2-2s.897-2 2-2 2 .897 2 2c0 3.08-1.022 4.61-2.206 6.382-1.31 1.96-2.794 4.181-2.794 8.618h2c0-3.83 1.193-5.616 2.457-7.507 1.25-1.871 2.543-3.806 2.543-7.493 0-2.206-1.794-4-4-4s-4 1.794-4 4 1.794 4 4 4z" fill="#cbaf6d" data-original="#000000" style="" class=""/></g></svg>
